<svg width="64" height="64" viewBox="0 0 64 64" fill="none" xmlns="http://www.w3.org/2000/svg">
<path fill-rule="evenodd" clip-rule="evenodd" d="M27.3925 1.91727C30.3167 -0.639091 34.6831 -0.639091 37.6074 1.91727L59.351 20.9253C61.0347 22.3967 62 24.5224 62 26.7569V56.2511C62 60.5309 58.527 64 54.2438 64H45.2282C40.9444 64 37.4719 60.5309 37.4719 56.2511V40.8195H27.528V56.2511C27.528 60.5309 24.0555 64 19.7719 64H10.7562C6.47255 64 3 60.5309 3 56.2511V26.7569C3 24.5224 3.96546 22.3967 5.64867 20.9253L27.3925 1.91727ZM33.6786 6.40317C33.0038 5.81324 31.9961 5.81324 31.3213 6.40317L9.57753 25.4112C9.18906 25.7507 8.96628 26.2413 8.96628 26.7569V56.2511C8.96628 57.2388 9.76761 58.0393 10.7562 58.0393H19.7719C20.7604 58.0393 21.5618 57.2388 21.5618 56.2511V40.2234C21.5618 37.2606 23.9658 34.8588 26.9314 34.8588H38.0685C41.034 34.8588 43.4381 37.2606 43.4381 40.2234V56.2511C43.4381 57.2388 44.2395 58.0393 45.2282 58.0393H54.2438C55.2324 58.0393 56.0337 57.2388 56.0337 56.2511V26.7569C56.0337 26.2413 55.8106 25.7507 55.4222 25.4112L33.6786 6.40317Z" fill="black"/>
</svg>
