<svg width="64" height="64" viewBox="0 0 64 64" fill="none" xmlns="http://www.w3.org/2000/svg">
<g clip-path="url(#clip0_13_16)">
<path d="M47 19.5C47 20.8807 45.6973 22 44.0909 22H17.9091C16.3025 22 15 20.8807 15 19.5C15 18.1193 16.3025 17 17.9091 17H44.0909C45.6973 17 47 18.1193 47 19.5Z" fill="black"/>
<path d="M33 35C34.6568 35 36 33.6568 36 32C36 30.3432 34.6568 29 33 29H18C16.3432 29 15 30.3432 15 32C15 33.6568 16.3432 35 18 35H33Z" fill="black"/>
<path fill-rule="evenodd" clip-rule="evenodd" d="M15.5287 63.6716C13.197 62.8542 11.6364 60.6526 11.6364 58.1816V49.402C5.11244 48.8144 0 43.3313 0 36.6544V11.6363C0 5.20976 5.20977 0 11.6364 0H52.3636C58.7904 0 64 5.20976 64 11.6363V36.6544C64 43.7235 58.2691 49.4544 51.2 49.4544H31.8872L21.9978 61.8162C20.4542 63.7455 17.8603 64.4897 15.5287 63.6716ZM17.4545 47.1271C17.4545 45.199 15.8916 43.6362 13.9636 43.6362H12.8C8.94406 43.6362 5.81818 40.5103 5.81818 36.6544V11.6363C5.81818 8.42307 8.4231 5.81816 11.6364 5.81816H52.3636C55.577 5.81816 58.1818 8.42307 58.1818 11.6363V36.6544C58.1818 40.5103 55.0557 43.6362 51.2 43.6362H31.8872C30.1198 43.6362 28.4482 44.4397 27.3441 45.8198L17.4545 58.1816V47.1271Z" fill="black"/>
</g>
<defs>
<clipPath id="clip0_13_16">
<rect width="64" height="64" fill="white"/>
</clipPath>
</defs>
</svg>
