<svg width="64" height="64" viewBox="0 0 64 64" fill="none" xmlns="http://www.w3.org/2000/svg">
<g clip-path="url(#clip0_13_8)">
<path d="M27.2166 32.5844C27.7635 33.1409 28.5111 33.4544 29.2914 33.4544C30.0717 33.4544 30.8193 33.1409 31.3662 32.5844L42.8019 20.9481C43.9282 19.8022 43.9119 17.9603 42.7662 16.8342C41.6202 15.708 39.7784 15.724 38.6523 16.8699L29.2914 26.395L25.3474 22.3819C24.2213 21.236 22.3795 21.22 21.2335 22.3461C20.0876 23.4723 20.0716 25.3141 21.1978 26.46L27.2166 32.5844Z" fill="black"/>
<path fill-rule="evenodd" clip-rule="evenodd" d="M11.6363 58.1816C11.6363 60.6526 13.197 62.8542 15.5286 63.6716C17.8602 64.4897 20.4542 63.7455 21.9977 61.8162L31.8871 49.4544H51.1998C58.2689 49.4544 63.9998 43.7235 63.9998 36.6544V12.8C63.9998 5.73071 58.2689 0 51.1998 0H12.8C5.73071 0 0 5.73071 0 12.8V36.6544C0 43.3313 5.11242 48.8144 11.6363 49.402V58.1816ZM13.9636 43.6362C15.8915 43.6362 17.4545 45.199 17.4545 47.1271V58.1816L27.344 45.8198C28.4481 44.4397 30.1197 43.6362 31.8871 43.6362H51.1998C55.0555 43.6362 58.1816 40.5103 58.1816 36.6544V12.8C58.1816 8.94402 55.0555 5.81816 51.1998 5.81816H12.8C8.94402 5.81816 5.81816 8.94402 5.81816 12.8V36.6544C5.81816 40.5103 8.94402 43.6362 12.8 43.6362H13.9636Z" fill="black"/>
</g>
<defs>
<clipPath id="clip0_13_8">
<rect width="64" height="64" fill="white"/>
</clipPath>
</defs>
</svg>
